<svg xmlns="http://www.w3.org/2000/svg" width="120" height="120" viewBox="0 0 120 120">
  <defs>
    <linearGradient id="g" x1="0" y1="0" x2="1" y2="1">
      <stop offset="0" stop-color="#ffd500"/>
      <stop offset="1" stop-color="#ffb800"/>
    </linearGradient>
  </defs>
  <circle cx="60" cy="60" r="56" fill="url(#g)"/>
  <path d="M36 58h48v30a6 6 0 0 1-6 6H42a6 6 0 0 1-6-6V58z" fill="#0b1f4b"/>
  <rect x="55" y="48" width="10" height="46" fill="#0b1f4b"/>
  <path d="M60 48c-8 0-13-5-13-11 0-4 3-7 7-7 6 0 6 9 6 18zm0 0c8 0 13-5 13-11 0-4-3-7-7-7-6 0-6 9-6 18z" fill="#0b1f4b"/>
</svg>
